<svg xmlns="http://www.w3.org/2000/svg" viewBox="0 0 1200 620" width="1200" height="620">
  <defs>
    <marker id="arrowA" markerWidth="10" markerHeight="7" refX="9" refY="3.5" orient="auto">
      <polygon points="0 0, 10 3.5, 0 7" fill="#d97757"/>
    </marker>
    <marker id="arrowB" markerWidth="10" markerHeight="7" refX="9" refY="3.5" orient="auto">
      <polygon points="0 0, 10 3.5, 0 7" fill="#7b8b5c"/>
    </marker>
    <marker id="arrowC" markerWidth="10" markerHeight="7" refX="9" refY="3.5" orient="auto">
      <polygon points="0 0, 10 3.5, 0 7" fill="#8c6f5a"/>
    </marker>
    <marker id="arrowE" markerWidth="10" markerHeight="7" refX="9" refY="3.5" orient="auto">
      <polygon points="0 0, 10 3.5, 0 7" fill="#b45309"/>
    </marker>
    <marker id="arrowF" markerWidth="10" markerHeight="7" refX="9" refY="3.5" orient="auto">
      <polygon points="0 0, 10 3.5, 0 7" fill="#9a6fb0"/>
    </marker>
    <marker id="arrowG" markerWidth="10" markerHeight="7" refX="9" refY="3.5" orient="auto">
      <polygon points="0 0, 10 3.5, 0 7" fill="#d97757"/>
    </marker>
    <marker id="arrowH" markerWidth="10" markerHeight="7" refX="9" refY="3.5" orient="auto">
      <polygon points="0 0, 10 3.5, 0 7" fill="#8f8a80"/>
    </marker>
    <style>
    text { font-family: 'Helvetica Neue', Helvetica, Arial, 'PingFang SC', 'Microsoft YaHei', sans-serif; }
    .title { font-size: 24px; font-weight: 700; fill: #141413; }
    .subtitle { font-size: 13px; font-weight: 500; fill: #8f8a80; }
    .section { font-size: 13px; font-weight: 700; fill: #8b7355; letter-spacing: 1.4px; }
    .section-sub { font-size: 12px; font-weight: 500; fill: #b4aba0; }
    .node-title { font-size: 18px; font-weight: 700; fill: #141413; }
    .node-sub { font-size: 12px; font-weight: 500; fill: #6b6257; }
    .node-type { font-size: 11px; font-weight: 700; fill: #a29a8f; letter-spacing: 0.08em; }
    .arrow-label { font-size: 12px; font-weight: 600; fill: #6b6257; }
    .legend { font-size: 12px; font-weight: 500; fill: #6b6257; }
    .footnote { font-size: 12px; font-weight: 500; fill: #a29a8f; }
    </style>
  </defs>
  <rect width="1200.0" height="620.0" fill="#f8f6f3"/>
  <text x="48.0" y="48" text-anchor="start" class="title">RAG vs LLM Wiki</text>
  <text x="48.0" y="72" text-anchor="start" class="subtitle">Retrieve at query time versus compile ahead of time</text>
  <line x1="48" y1="100" x2="1152.0" y2="100" stroke="#ded8cf" stroke-width="1"/>
  <rect x="60.0" y="130.0" width="500.0" height="360.0" rx="16.0" fill="none" stroke="#ded8cf" stroke-width="1.4" stroke-dasharray="5 4"/>
  <text x="78.0" y="154.0" class="section">TRADITIONAL RAG</text>
  <text x="42.0" y="310.0" text-anchor="end" dominant-baseline="middle" font-size="14.0" font-weight="600" fill="#6b6257">Retrieve</text>
  <rect x="640.0" y="130.0" width="500.0" height="360.0" rx="16.0" fill="none" stroke="#ded8cf" stroke-width="1.4" stroke-dasharray="5 4"/>
  <text x="658.0" y="154.0" class="section">LLM WIKI</text>
  <text x="622.0" y="310.0" text-anchor="end" dominant-baseline="middle" font-size="14.0" font-weight="600" fill="#6b6257">Compile</text>
  <path d="M 230.0,215.0 L 290.0,215.0" fill="none" stroke="#8c6f5a" stroke-width="2.0" marker-end="url(#arrowC)"/>
  <path d="M 355.0,250.0 L 355.0,270.4 L 260.0,294.6 L 260.0,315.0" fill="none" stroke="#8c6f5a" stroke-width="2.0" marker-end="url(#arrowC)"/>
  <path d="M 820.0,215.0 L 880.0,215.0" fill="none" stroke="#b45309" stroke-width="2.0" marker-end="url(#arrowE)"/>
  <path d="M 945.0,250.0 L 945.0,270.4 L 850.0,294.6 L 850.0,315.0" fill="none" stroke="#d97757" stroke-width="2.0" marker-end="url(#arrowA)" stroke-dasharray="6,4"/>
  <path d="M 915.0,350.0 L 975.0,350.0" fill="none" stroke="#8c6f5a" stroke-width="2.0" marker-end="url(#arrowC)"/>
  <rect x="100.0" y="180.0" width="130.0" height="70.0" rx="10.0" fill="#a8c5e6" stroke="#4a4a4a" stroke-width="1.8"/>
  <text x="165.0" y="215.0" text-anchor="middle" class="node-title">Question</text>
  <rect x="290.0" y="180.0" width="130.0" height="70.0" rx="10.0" fill="#e8e6e3" stroke="#4a4a4a" stroke-width="1.8"/>
  <text x="355.0" y="215.0" text-anchor="middle" class="node-title">Vector DB</text>
  <rect x="195.0" y="315.0" width="130.0" height="70.0" rx="10.0" fill="#f4e4c1" stroke="#4a4a4a" stroke-width="1.8"/>
  <text x="260.0" y="350.0" text-anchor="middle" class="node-title">Answer</text>
  <rect x="690.0" y="180.0" width="130.0" height="70.0" rx="10.0" fill="#a8c5e6" stroke="#4a4a4a" stroke-width="1.8"/>
  <text x="755.0" y="215.0" text-anchor="middle" class="node-title">raw/</text>
  <rect x="880.0" y="180.0" width="130.0" height="70.0" rx="10.0" fill="#9dd4c7" stroke="#4a4a4a" stroke-width="1.8"/>
  <text x="945.0" y="215.0" text-anchor="middle" class="node-title">LLM</text>
  <rect x="785.0" y="315.0" width="130.0" height="70.0" rx="10.0" fill="#e8e6e3" stroke="#4a4a4a" stroke-width="1.8"/>
  <text x="850.0" y="350.0" text-anchor="middle" class="node-title">wiki/</text>
  <rect x="975.0" y="315.0" width="130.0" height="70.0" rx="10.0" fill="#f4e4c1" stroke="#4a4a4a" stroke-width="1.8"/>
  <text x="1040.0" y="350.0" text-anchor="middle" class="node-title">Answer</text>
  <rect x="225.0" y="201.0" width="70" height="20" rx="6" fill="#f8f6f3" opacity="0.96"/>
  <text x="260.0" y="215.0" text-anchor="middle" class="arrow-label">retrieve</text>
  <rect x="276.0" y="252.5" width="63" height="20" rx="6" fill="#f8f6f3" opacity="0.96"/>
  <text x="307.5" y="266.5" text-anchor="middle" class="arrow-label">context</text>
  <rect x="818.5" y="201.0" width="63" height="20" rx="6" fill="#f8f6f3" opacity="0.96"/>
  <text x="850.0" y="215.0" text-anchor="middle" class="arrow-label">compile</text>
  <rect x="873.0" y="252.5" width="49" height="20" rx="6" fill="#f8f6f3" opacity="0.96"/>
  <text x="897.5" y="266.5" text-anchor="middle" class="arrow-label">write</text>
  <rect x="924.0" y="320.0" width="42" height="20" rx="6" fill="#f8f6f3" opacity="0.96"/>
  <text x="945.0" y="334.0" text-anchor="middle" class="arrow-label">read</text>
</svg>