<svg xmlns="http://www.w3.org/2000/svg" viewBox="0 0 1200 620" width="1200" height="620">
  <defs>
    <marker id="arrowA" markerWidth="10" markerHeight="7" refX="9" refY="3.5" orient="auto">
      <polygon points="0 0, 10 3.5, 0 7" fill="#d97757"/>
    </marker>
    <marker id="arrowB" markerWidth="10" markerHeight="7" refX="9" refY="3.5" orient="auto">
      <polygon points="0 0, 10 3.5, 0 7" fill="#7b8b5c"/>
    </marker>
    <marker id="arrowC" markerWidth="10" markerHeight="7" refX="9" refY="3.5" orient="auto">
      <polygon points="0 0, 10 3.5, 0 7" fill="#8c6f5a"/>
    </marker>
    <marker id="arrowE" markerWidth="10" markerHeight="7" refX="9" refY="3.5" orient="auto">
      <polygon points="0 0, 10 3.5, 0 7" fill="#b45309"/>
    </marker>
    <marker id="arrowF" markerWidth="10" markerHeight="7" refX="9" refY="3.5" orient="auto">
      <polygon points="0 0, 10 3.5, 0 7" fill="#9a6fb0"/>
    </marker>
    <marker id="arrowG" markerWidth="10" markerHeight="7" refX="9" refY="3.5" orient="auto">
      <polygon points="0 0, 10 3.5, 0 7" fill="#d97757"/>
    </marker>
    <marker id="arrowH" markerWidth="10" markerHeight="7" refX="9" refY="3.5" orient="auto">
      <polygon points="0 0, 10 3.5, 0 7" fill="#8f8a80"/>
    </marker>
    <style>
    text { font-family: 'Helvetica Neue', Helvetica, Arial, 'PingFang SC', 'Microsoft YaHei', sans-serif; }
    .title { font-size: 24px; font-weight: 700; fill: #141413; }
    .subtitle { font-size: 13px; font-weight: 500; fill: #8f8a80; }
    .section { font-size: 13px; font-weight: 700; fill: #8b7355; letter-spacing: 1.4px; }
    .section-sub { font-size: 12px; font-weight: 500; fill: #b4aba0; }
    .node-title { font-size: 18px; font-weight: 700; fill: #141413; }
    .node-sub { font-size: 12px; font-weight: 500; fill: #6b6257; }
    .node-type { font-size: 11px; font-weight: 700; fill: #a29a8f; letter-spacing: 0.08em; }
    .arrow-label { font-size: 12px; font-weight: 600; fill: #6b6257; }
    .legend { font-size: 12px; font-weight: 500; fill: #6b6257; }
    .footnote { font-size: 12px; font-weight: 500; fill: #a29a8f; }
    </style>
  </defs>
  <rect width="1200.0" height="620.0" fill="#f8f6f3"/>
  <text x="48.0" y="48" text-anchor="start" class="title">Remote Home Agent</text>
  <text x="48.0" y="72" text-anchor="start" class="subtitle">Two access paths: tailnet direct or relay bridge</text>
  <line x1="48" y1="100" x2="1152.0" y2="100" stroke="#ded8cf" stroke-width="1"/>
  <rect x="50.0" y="130.0" width="220.0" height="320.0" rx="16.0" fill="none" stroke="#ded8cf" stroke-width="1.4" stroke-dasharray="5 4"/>
  <text x="68.0" y="154.0" class="section">REMOTE</text>
  <text x="32.0" y="290.0" text-anchor="end" dominant-baseline="middle" font-size="14.0" font-weight="600" fill="#6b6257">Client</text>
  <rect x="330.0" y="130.0" width="220.0" height="320.0" rx="16.0" fill="none" stroke="#ded8cf" stroke-width="1.4" stroke-dasharray="5 4"/>
  <text x="348.0" y="154.0" class="section">ACCESS</text>
  <text x="312.0" y="290.0" text-anchor="end" dominant-baseline="middle" font-size="14.0" font-weight="600" fill="#6b6257">Path</text>
  <rect x="610.0" y="130.0" width="540.0" height="320.0" rx="16.0" fill="none" stroke="#ded8cf" stroke-width="1.4" stroke-dasharray="5 4"/>
  <text x="628.0" y="154.0" class="section">HOME MAC</text>
  <text x="592.0" y="290.0" text-anchor="end" dominant-baseline="middle" font-size="14.0" font-weight="600" fill="#6b6257">Runtime</text>
  <path d="M 235.0,283.0 L 255.4,283.0 L 344.6,223.0 L 365.0,223.0" fill="none" stroke="#8c6f5a" stroke-width="2.0" marker-end="url(#arrowC)"/>
  <path d="M 235.0,283.0 L 255.4,283.0 L 344.6,353.0 L 365.0,353.0" fill="none" stroke="#d97757" stroke-width="2.0" marker-end="url(#arrowA)" stroke-dasharray="6,4"/>
  <path d="M 515.0,223.0 L 690.0,223.0" fill="none" stroke="#8c6f5a" stroke-width="2.0" marker-end="url(#arrowC)"/>
  <path d="M 515.0,223.0 L 535.4,223.0 L 535.4,285.0 L 909.6,285.0 L 909.6,223.0 L 930.0,223.0" fill="none" stroke="#8c6f5a" stroke-width="2.0" marker-end="url(#arrowC)"/>
  <path d="M 515.0,353.0 L 535.4,353.0 L 909.6,223.0 L 930.0,223.0" fill="none" stroke="#d97757" stroke-width="2.0" marker-end="url(#arrowA)" stroke-dasharray="6,4"/>
  <path d="M 775.0,261.0 L 775.0,368.0 L 810.0,368.0" fill="none" stroke="#b45309" stroke-width="2.0" marker-end="url(#arrowE)"/>
  <path d="M 1005.0,261.0 L 1005.0,368.0 L 970.0,368.0" fill="none" stroke="#b45309" stroke-width="2.0" marker-end="url(#arrowE)"/>
  <rect x="85.0" y="245.0" width="150.0" height="76.0" rx="10.0" fill="#a8c5e6" stroke="#4a4a4a" stroke-width="1.8"/>
  <text x="160.0" y="283.0" text-anchor="middle" class="node-title">Remote client</text>
  <rect x="365.0" y="185.0" width="150.0" height="76.0" rx="10.0" fill="#f4e4c1" stroke="#4a4a4a" stroke-width="1.8"/>
  <text x="440.0" y="223.0" text-anchor="middle" class="node-title">Tailscale</text>
  <text x="440.0" y="245.0" text-anchor="middle" class="node-sub">direct</text>
  <rect x="365.0" y="315.0" width="150.0" height="76.0" rx="10.0" fill="#f4e4c1" stroke="#4a4a4a" stroke-width="1.8"/>
  <text x="440.0" y="353.0" text-anchor="middle" class="node-title">Paseo relay</text>
  <text x="440.0" y="375.0" text-anchor="middle" class="node-sub">bridge</text>
  <rect x="690.0" y="185.0" width="170.0" height="76.0" rx="10.0" fill="#9dd4c7" stroke="#4a4a4a" stroke-width="1.8"/>
  <text x="775.0" y="223.0" text-anchor="middle" class="node-title">OpenClaw</text>
  <text x="775.0" y="245.0" text-anchor="middle" class="node-sub">gateway</text>
  <rect x="930.0" y="185.0" width="150.0" height="76.0" rx="10.0" fill="#9dd4c7" stroke="#4a4a4a" stroke-width="1.8"/>
  <text x="1005.0" y="223.0" text-anchor="middle" class="node-title">Paseo</text>
  <text x="1005.0" y="245.0" text-anchor="middle" class="node-sub">daemon</text>
  <rect x="810.0" y="325.0" width="160.0" height="86.0" rx="10.0" fill="#e8e6e3" stroke="#4a4a4a" stroke-width="1.8"/>
  <text x="890.0" y="368.0" text-anchor="middle" class="node-title">Local agent</text>
  <text x="890.0" y="390.0" text-anchor="middle" class="node-sub">runs at home</text>
  <rect x="279.0" y="223.0" width="42" height="20" rx="6" fill="#f8f6f3" opacity="0.96"/>
  <text x="300.0" y="237.0" text-anchor="middle" class="arrow-label">join</text>
  <rect x="272.0" y="288.0" width="56" height="20" rx="6" fill="#f8f6f3" opacity="0.96"/>
  <text x="300.0" y="302.0" text-anchor="middle" class="arrow-label">bridge</text>
  <rect x="574.5" y="193.0" width="56" height="20" rx="6" fill="#f8f6f3" opacity="0.96"/>
  <text x="602.5" y="207.0" text-anchor="middle" class="arrow-label">direct</text>
  <rect x="694.5" y="287.0" width="56" height="20" rx="6" fill="#f8f6f3" opacity="0.96"/>
  <text x="722.5" y="301.0" text-anchor="middle" class="arrow-label">direct</text>
  <rect x="698.0" y="274.0" width="49" height="20" rx="6" fill="#f8f6f3" opacity="0.96"/>
  <text x="722.5" y="288.0" text-anchor="middle" class="arrow-label">relay</text>
  <rect x="743.5" y="300.5" width="63" height="20" rx="6" fill="#f8f6f3" opacity="0.96"/>
  <text x="775.0" y="314.5" text-anchor="middle" class="arrow-label">control</text>
  <rect x="991.5" y="300.5" width="63" height="20" rx="6" fill="#f8f6f3" opacity="0.96"/>
  <text x="1023.0" y="314.5" text-anchor="middle" class="arrow-label">session</text>
  <rect x="32.0" y="528.0" width="149" height="68" rx="10" fill="#f8f6f3" opacity="0.88"/>
  <line x1="42.0" y1="542.0" x2="72.0" y2="542.0" stroke="#8c6f5a" stroke-width="2.0" marker-end="url(#arrowC)"/>
  <text x="82.0" y="546.0" class="legend">Direct path</text>
  <line x1="42.0" y1="564.0" x2="72.0" y2="564.0" stroke="#d97757" stroke-width="2.0" marker-end="url(#arrowA)"/>
  <text x="82.0" y="568.0" class="legend">Relay path</text>
</svg>