<svg xmlns="http://www.w3.org/2000/svg" viewBox="0 0 1200 760" width="1200" height="760">
  <defs>
    <marker id="arrowA" markerWidth="10" markerHeight="7" refX="9" refY="3.5" orient="auto">
      <polygon points="0 0, 10 3.5, 0 7" fill="#d97757"/>
    </marker>
    <marker id="arrowB" markerWidth="10" markerHeight="7" refX="9" refY="3.5" orient="auto">
      <polygon points="0 0, 10 3.5, 0 7" fill="#7b8b5c"/>
    </marker>
    <marker id="arrowC" markerWidth="10" markerHeight="7" refX="9" refY="3.5" orient="auto">
      <polygon points="0 0, 10 3.5, 0 7" fill="#8c6f5a"/>
    </marker>
    <marker id="arrowE" markerWidth="10" markerHeight="7" refX="9" refY="3.5" orient="auto">
      <polygon points="0 0, 10 3.5, 0 7" fill="#b45309"/>
    </marker>
    <marker id="arrowF" markerWidth="10" markerHeight="7" refX="9" refY="3.5" orient="auto">
      <polygon points="0 0, 10 3.5, 0 7" fill="#9a6fb0"/>
    </marker>
    <marker id="arrowG" markerWidth="10" markerHeight="7" refX="9" refY="3.5" orient="auto">
      <polygon points="0 0, 10 3.5, 0 7" fill="#d97757"/>
    </marker>
    <marker id="arrowH" markerWidth="10" markerHeight="7" refX="9" refY="3.5" orient="auto">
      <polygon points="0 0, 10 3.5, 0 7" fill="#8f8a80"/>
    </marker>
    <style>
    text { font-family: 'Helvetica Neue', Helvetica, Arial, 'PingFang SC', 'Microsoft YaHei', sans-serif; }
    .title { font-size: 24px; font-weight: 700; fill: #141413; }
    .subtitle { font-size: 13px; font-weight: 500; fill: #8f8a80; }
    .section { font-size: 13px; font-weight: 700; fill: #8b7355; letter-spacing: 1.4px; }
    .section-sub { font-size: 12px; font-weight: 500; fill: #b4aba0; }
    .node-title { font-size: 18px; font-weight: 700; fill: #141413; }
    .node-sub { font-size: 12px; font-weight: 500; fill: #6b6257; }
    .node-type { font-size: 11px; font-weight: 700; fill: #a29a8f; letter-spacing: 0.08em; }
    .arrow-label { font-size: 12px; font-weight: 600; fill: #6b6257; }
    .legend { font-size: 12px; font-weight: 500; fill: #6b6257; }
    .footnote { font-size: 12px; font-weight: 500; fill: #a29a8f; }
    </style>
  </defs>
  <rect width="1200.0" height="760.0" fill="#f8f6f3"/>
  <text x="48.0" y="48" text-anchor="start" class="title">Remote Home Agent Access Path</text>
  <text x="48.0" y="72" text-anchor="start" class="subtitle">Tailscale as private network entry, Paseo/OpenClaw as the control layer</text>
  <line x1="48" y1="100" x2="1152.0" y2="100" stroke="#ded8cf" stroke-width="1"/>
  <rect x="40.0" y="110.0" width="250.0" height="500.0" rx="16.0" fill="none" stroke="#ded8cf" stroke-width="1.4" stroke-dasharray="5 4"/>
  <text x="58.0" y="134.0" class="section">REMOTE DEVICES</text>
  <text x="58.0" y="154.0" class="section-sub">Outside home network</text>
  <text x="28.0" y="360.0" text-anchor="end" dominant-baseline="middle" font-size="14.0" font-weight="600" fill="#6b6257">Access side</text>
  <rect x="340.0" y="110.0" width="250.0" height="500.0" rx="16.0" fill="none" stroke="#ded8cf" stroke-width="1.4" stroke-dasharray="5 4"/>
  <text x="358.0" y="134.0" class="section">CONNECTIVITY LAYER</text>
  <text x="358.0" y="154.0" class="section-sub">Private network first, relay optional</text>
  <text x="322.0" y="360.0" text-anchor="end" dominant-baseline="middle" font-size="14.0" font-weight="600" fill="#6b6257">Network</text>
  <rect x="640.0" y="110.0" width="520.0" height="500.0" rx="16.0" fill="none" stroke="#ded8cf" stroke-width="1.4" stroke-dasharray="5 4"/>
  <text x="658.0" y="134.0" class="section">HOME MAC</text>
  <text x="658.0" y="154.0" class="section-sub">No public IP required</text>
  <text x="622.0" y="360.0" text-anchor="end" dominant-baseline="middle" font-size="14.0" font-weight="600" fill="#6b6257">Runtime</text>
  <path d="M 250.0,231.0 L 380.0,231.0" fill="none" stroke="#8c6f5a" stroke-width="2.0" marker-end="url(#arrowC)"/>
  <path d="M 250.0,371.0 L 270.4,371.0 L 359.6,231.0 L 380.0,231.0" fill="none" stroke="#8c6f5a" stroke-width="2.0" marker-end="url(#arrowC)"/>
  <path d="M 250.0,231.0 L 270.4,231.0 L 359.6,371.0 L 380.0,371.0" fill="none" stroke="#d97757" stroke-width="2.0" marker-end="url(#arrowA)" stroke-dasharray="6,4"/>
  <path d="M 550.0,231.0 L 570.4,231.0 L 669.6,204.0 L 690.0,204.0" fill="none" stroke="#b45309" stroke-width="2.0" marker-end="url(#arrowE)"/>
  <path d="M 550.0,231.0 L 570.4,231.0 L 909.6,204.0 L 930.0,204.0" fill="none" stroke="#b45309" stroke-width="2.0" marker-end="url(#arrowE)"/>
  <path d="M 550.0,371.0 L 570.4,371.0 L 669.6,204.0 L 690.0,204.0" fill="none" stroke="#d97757" stroke-width="2.0" marker-end="url(#arrowA)" stroke-dasharray="6,4"/>
  <path d="M 785.0,248.0 L 785.0,340.0" fill="none" stroke="#b45309" stroke-width="2.0" marker-end="url(#arrowE)"/>
  <path d="M 1025.0,248.0 L 1025.0,340.0" fill="none" stroke="#b45309" stroke-width="2.0" marker-end="url(#arrowE)"/>
  <path d="M 880.0,390.0 L 930.0,390.0" fill="none" stroke="#8c6f5a" stroke-width="2.0" marker-end="url(#arrowC)"/>
  <path d="M 1025.0,440.0 L 1025.0,536.0 L 1000.0,536.0" fill="none" stroke="#d97757" stroke-width="2.0" marker-end="url(#arrowA)" stroke-dasharray="6,4"/>
  <path d="M 785.0,440.0 L 785.0,536.0 L 810.0,536.0" fill="none" stroke="#8c6f5a" stroke-width="2.0" marker-end="url(#arrowC)"/>
  <rect x="80.0" y="190.0" width="170.0" height="82.0" rx="10.0" fill="#a8c5e6" stroke="#4a4a4a" stroke-width="1.8"/>
  <text x="165.0" y="231.0" text-anchor="middle" class="node-title">Phone / iPad</text>
  <text x="165.0" y="253.0" text-anchor="middle" class="node-sub">Remote client</text>
  <rect x="80.0" y="330.0" width="170.0" height="82.0" rx="10.0" fill="#a8c5e6" stroke="#4a4a4a" stroke-width="1.8"/>
  <text x="165.0" y="371.0" text-anchor="middle" class="node-title">Laptop / Web</text>
  <text x="165.0" y="393.0" text-anchor="middle" class="node-sub">Remote client</text>
  <rect x="380.0" y="190.0" width="170.0" height="82.0" rx="10.0" fill="#f4e4c1" stroke="#4a4a4a" stroke-width="1.8"/>
  <text x="465.0" y="231.0" text-anchor="middle" class="node-title">Tailscale tailnet</text>
  <text x="465.0" y="253.0" text-anchor="middle" class="node-sub">Private network path</text>
  <rect x="380.0" y="330.0" width="170.0" height="82.0" rx="10.0" fill="#f4e4c1" stroke="#4a4a4a" stroke-width="1.8"/>
  <text x="465.0" y="371.0" text-anchor="middle" class="node-title">Paseo relay</text>
  <text x="465.0" y="393.0" text-anchor="middle" class="node-sub">Optional remote bridge</text>
  <rect x="690.0" y="160.0" width="190.0" height="88.0" rx="10.0" fill="#9dd4c7" stroke="#4a4a4a" stroke-width="1.8"/>
  <text x="785.0" y="204.0" text-anchor="middle" class="node-title">Paseo daemon</text>
  <text x="785.0" y="226.0" text-anchor="middle" class="node-sub">Remote session control</text>
  <rect x="930.0" y="160.0" width="190.0" height="88.0" rx="10.0" fill="#9dd4c7" stroke="#4a4a4a" stroke-width="1.8"/>
  <text x="1025.0" y="204.0" text-anchor="middle" class="node-title">OpenClaw Gateway</text>
  <text x="1025.0" y="226.0" text-anchor="middle" class="node-sub">Tailnet-only control surface</text>
  <rect x="690.0" y="340.0" width="190.0" height="100.0" rx="10.0" fill="#9dd4c7" stroke="#4a4a4a" stroke-width="1.8"/>
  <text x="785.0" y="390.0" text-anchor="middle" class="node-title">Claude Code / Codex / OpenCode</text>
  <text x="785.0" y="412.0" text-anchor="middle" class="node-sub">Local agent CLIs</text>
  <rect x="930.0" y="340.0" width="190.0" height="100.0" rx="10.0" fill="#e8e6e3" stroke="#4a4a4a" stroke-width="1.8"/>
  <text x="1025.0" y="390.0" text-anchor="middle" class="node-title">Workspace + Tools</text>
  <text x="1025.0" y="412.0" text-anchor="middle" class="node-sub">Code, browser, MCP, shell</text>
  <rect x="810.0" y="500.0" width="190.0" height="72.0" rx="10.0" fill="#e8e6e3" stroke="#4a4a4a" stroke-width="1.8"/>
  <text x="905.0" y="536.0" text-anchor="middle" class="node-title">Home Mac runtime</text>
  <text x="905.0" y="558.0" text-anchor="middle" class="node-sub">Agent stays local</text>
  <rect x="266.0" y="201.0" width="98" height="20" rx="6" fill="#f8f6f3" opacity="0.96"/>
  <text x="315.0" y="215.0" text-anchor="middle" class="arrow-label">join tailnet</text>
  <rect x="259.0" y="271.0" width="112" height="20" rx="6" fill="#f8f6f3" opacity="0.96"/>
  <text x="315.0" y="285.0" text-anchor="middle" class="arrow-label">private access</text>
  <rect x="262.5" y="303.0" width="105" height="20" rx="6" fill="#f8f6f3" opacity="0.96"/>
  <text x="315.0" y="317.0" text-anchor="middle" class="arrow-label">remote bridge</text>
  <rect x="564.0" y="187.5" width="112" height="20" rx="6" fill="#f8f6f3" opacity="0.96"/>
  <text x="620.0" y="201.5" text-anchor="middle" class="arrow-label">direct connect</text>
  <rect x="680.5" y="203.5" width="119" height="20" rx="6" fill="#f8f6f3" opacity="0.96"/>
  <text x="740.0" y="217.5" text-anchor="middle" class="arrow-label">tailnet-only UI</text>
  <rect x="567.5" y="257.5" width="105" height="20" rx="6" fill="#f8f6f3" opacity="0.96"/>
  <text x="620.0" y="271.5" text-anchor="middle" class="arrow-label">fallback path</text>
  <rect x="686.5" y="280.0" width="161" height="20" rx="6" fill="#f8f6f3" opacity="0.96"/>
  <text x="767.0" y="294.0" text-anchor="middle" class="arrow-label">spawn / attach / send</text>
  <rect x="919.5" y="280.0" width="175" height="20" rx="6" fill="#f8f6f3" opacity="0.96"/>
  <text x="1007.0" y="294.0" text-anchor="middle" class="arrow-label">tools / browser / nodes</text>
  <rect x="824.5" y="376.0" width="161" height="20" rx="6" fill="#f8f6f3" opacity="0.96"/>
  <text x="905.0" y="390.0" text-anchor="middle" class="arrow-label">read code + use tools</text>
  <rect x="955.0" y="474.0" width="140" height="20" rx="6" fill="#f8f6f3" opacity="0.96"/>
  <text x="1025.0" y="488.0" text-anchor="middle" class="arrow-label">local side effects</text>
  <rect x="704.5" y="474.0" width="161" height="20" rx="6" fill="#f8f6f3" opacity="0.96"/>
  <text x="785.0" y="488.0" text-anchor="middle" class="arrow-label">execution stays local</text>
  <rect x="32.0" y="646.0" width="275" height="90" rx="10" fill="#f8f6f3" opacity="0.88"/>
  <line x1="42.0" y1="660.0" x2="72.0" y2="660.0" stroke="#8c6f5a" stroke-width="2.0" marker-end="url(#arrowC)"/>
  <text x="82.0" y="664.0" class="legend">Preferred private path</text>
  <line x1="42.0" y1="682.0" x2="72.0" y2="682.0" stroke="#d97757" stroke-width="2.0" marker-end="url(#arrowA)"/>
  <text x="82.0" y="686.0" class="legend">Optional relay path</text>
  <line x1="42.0" y1="704.0" x2="72.0" y2="704.0" stroke="#b45309" stroke-width="2.0" marker-end="url(#arrowE)"/>
  <text x="82.0" y="708.0" class="legend">Agent control / output stream</text>
</svg>