<svg xmlns="http://www.w3.org/2000/svg" viewBox="0 0 1200 560" width="1200" height="560">
  <defs>
    <marker id="arrowA" markerWidth="10" markerHeight="7" refX="9" refY="3.5" orient="auto">
      <polygon points="0 0, 10 3.5, 0 7" fill="#d97757"/>
    </marker>
    <marker id="arrowB" markerWidth="10" markerHeight="7" refX="9" refY="3.5" orient="auto">
      <polygon points="0 0, 10 3.5, 0 7" fill="#7b8b5c"/>
    </marker>
    <marker id="arrowC" markerWidth="10" markerHeight="7" refX="9" refY="3.5" orient="auto">
      <polygon points="0 0, 10 3.5, 0 7" fill="#8c6f5a"/>
    </marker>
    <marker id="arrowE" markerWidth="10" markerHeight="7" refX="9" refY="3.5" orient="auto">
      <polygon points="0 0, 10 3.5, 0 7" fill="#b45309"/>
    </marker>
    <marker id="arrowF" markerWidth="10" markerHeight="7" refX="9" refY="3.5" orient="auto">
      <polygon points="0 0, 10 3.5, 0 7" fill="#9a6fb0"/>
    </marker>
    <marker id="arrowG" markerWidth="10" markerHeight="7" refX="9" refY="3.5" orient="auto">
      <polygon points="0 0, 10 3.5, 0 7" fill="#d97757"/>
    </marker>
    <marker id="arrowH" markerWidth="10" markerHeight="7" refX="9" refY="3.5" orient="auto">
      <polygon points="0 0, 10 3.5, 0 7" fill="#8f8a80"/>
    </marker>
    <style>
    text { font-family: 'Helvetica Neue', Helvetica, Arial, 'PingFang SC', 'Microsoft YaHei', sans-serif; }
    .title { font-size: 24px; font-weight: 700; fill: #141413; }
    .subtitle { font-size: 13px; font-weight: 500; fill: #8f8a80; }
    .section { font-size: 13px; font-weight: 700; fill: #8b7355; letter-spacing: 1.4px; }
    .section-sub { font-size: 12px; font-weight: 500; fill: #b4aba0; }
    .node-title { font-size: 18px; font-weight: 700; fill: #141413; }
    .node-sub { font-size: 12px; font-weight: 500; fill: #6b6257; }
    .node-type { font-size: 11px; font-weight: 700; fill: #a29a8f; letter-spacing: 0.08em; }
    .arrow-label { font-size: 12px; font-weight: 600; fill: #6b6257; }
    .legend { font-size: 12px; font-weight: 500; fill: #6b6257; }
    .footnote { font-size: 12px; font-weight: 500; fill: #a29a8f; }
    </style>
  </defs>
  <rect width="1200.0" height="560.0" fill="#f8f6f3"/>
  <text x="48.0" y="48" text-anchor="start" class="title">Tailscale Direct Path</text>
  <text x="48.0" y="72" text-anchor="start" class="subtitle">Private reachability to the home Mac</text>
  <line x1="48" y1="100" x2="1152.0" y2="100" stroke="#ded8cf" stroke-width="1"/>
  <rect x="60.0" y="140.0" width="240.0" height="250.0" rx="16.0" fill="none" stroke="#ded8cf" stroke-width="1.4" stroke-dasharray="5 4"/>
  <text x="78.0" y="164.0" class="section">REMOTE</text>
  <text x="42.0" y="265.0" text-anchor="end" dominant-baseline="middle" font-size="14.0" font-weight="600" fill="#6b6257">Client</text>
  <rect x="360.0" y="140.0" width="220.0" height="250.0" rx="16.0" fill="none" stroke="#ded8cf" stroke-width="1.4" stroke-dasharray="5 4"/>
  <text x="378.0" y="164.0" class="section">NETWORK</text>
  <text x="342.0" y="265.0" text-anchor="end" dominant-baseline="middle" font-size="14.0" font-weight="600" fill="#6b6257">Tailnet</text>
  <rect x="640.0" y="140.0" width="500.0" height="250.0" rx="16.0" fill="none" stroke="#ded8cf" stroke-width="1.4" stroke-dasharray="5 4"/>
  <text x="658.0" y="164.0" class="section">HOME MAC</text>
  <text x="622.0" y="265.0" text-anchor="end" dominant-baseline="middle" font-size="14.0" font-weight="600" fill="#6b6257">Runtime</text>
  <path d="M 255.0,263.0 L 395.0,263.0" fill="none" stroke="#8c6f5a" stroke-width="2.0" marker-end="url(#arrowC)"/>
  <path d="M 545.0,263.0 L 565.4,263.0 L 704.6,223.0 L 725.0,223.0" fill="none" stroke="#8c6f5a" stroke-width="2.0" marker-end="url(#arrowC)"/>
  <path d="M 875.0,223.0 L 894.6,223.0 L 894.6,303.0 L 915.0,303.0" fill="none" stroke="#b45309" stroke-width="2.0" marker-end="url(#arrowE)"/>
  <rect x="105.0" y="225.0" width="150.0" height="76.0" rx="10.0" fill="#a8c5e6" stroke="#4a4a4a" stroke-width="1.8"/>
  <text x="180.0" y="263.0" text-anchor="middle" class="node-title">Remote client</text>
  <rect x="395.0" y="225.0" width="150.0" height="76.0" rx="10.0" fill="#f4e4c1" stroke="#4a4a4a" stroke-width="1.8"/>
  <text x="470.0" y="263.0" text-anchor="middle" class="node-title">Tailscale</text>
  <rect x="725.0" y="185.0" width="150.0" height="76.0" rx="10.0" fill="#9dd4c7" stroke="#4a4a4a" stroke-width="1.8"/>
  <text x="800.0" y="223.0" text-anchor="middle" class="node-title">OpenClaw / Paseo</text>
  <rect x="915.0" y="265.0" width="140.0" height="76.0" rx="10.0" fill="#e8e6e3" stroke="#4a4a4a" stroke-width="1.8"/>
  <text x="985.0" y="303.0" text-anchor="middle" class="node-title">Local agent</text>
  <rect x="304.0" y="233.0" width="42" height="20" rx="6" fill="#f8f6f3" opacity="0.96"/>
  <text x="325.0" y="247.0" text-anchor="middle" class="arrow-label">join</text>
  <rect x="607.0" y="213.0" width="56" height="20" rx="6" fill="#f8f6f3" opacity="0.96"/>
  <text x="635.0" y="227.0" text-anchor="middle" class="arrow-label">direct</text>
  <rect x="863.1" y="249.0" width="63" height="20" rx="6" fill="#f8f6f3" opacity="0.96"/>
  <text x="894.6" y="263.0" text-anchor="middle" class="arrow-label">control</text>
  <rect x="32.0" y="490.0" width="205" height="46" rx="10" fill="#f8f6f3" opacity="0.88"/>
  <line x1="42.0" y1="504.0" x2="72.0" y2="504.0" stroke="#8c6f5a" stroke-width="2.0" marker-end="url(#arrowC)"/>
  <text x="82.0" y="508.0" class="legend">Direct tailnet path</text>
</svg>